<mxfile host="app.diagrams.net" modified="2023-10-29T12:26:15.386Z" agent="Mozilla/5.0 (Windows NT 10.0; Win64; x64; rv:109.0) Gecko/20100101 Firefox/119.0" etag="2hK5moP34DXZNSLrJ9lB" version="22.0.8" type="github">
  <diagram name="Page-1" id="L8mstzmJL-bA9-87ZFgZ">
    <mxGraphModel dx="279" dy="431" grid="1" gridSize="10" guides="1" tooltips="1" connect="1" arrows="1" fold="1" page="1" pageScale="1" pageWidth="850" pageHeight="1100" math="0" shadow="0">
      <root>
        <mxCell id="0" />
        <mxCell id="1" parent="0" />
        <mxCell id="IlggWSS1KbTiTnfQzWxn-1" value="" style="edgeStyle=elbowEdgeStyle;elbow=vertical;endArrow=classic;html=1;curved=0;rounded=0;endSize=8;startSize=8;entryX=0.25;entryY=1;entryDx=0;entryDy=0;" edge="1" parent="1" target="IlggWSS1KbTiTnfQzWxn-19">
          <mxGeometry width="50" height="50" relative="1" as="geometry">
            <mxPoint x="120" y="360" as="sourcePoint" />
            <mxPoint x="280" y="330" as="targetPoint" />
            <Array as="points">
              <mxPoint x="200" y="360" />
            </Array>
          </mxGeometry>
        </mxCell>
        <mxCell id="IlggWSS1KbTiTnfQzWxn-2" value="DATA LINK LAYER" style="rounded=1;whiteSpace=wrap;html=1;strokeWidth=2;fillWeight=4;hachureGap=8;hachureAngle=45;fillColor=#ffe6cc;sketch=1;strokeColor=#d79b00;fontStyle=1" vertex="1" parent="1">
          <mxGeometry x="240" y="200" width="160" height="40" as="geometry" />
        </mxCell>
        <mxCell id="IlggWSS1KbTiTnfQzWxn-3" value="" style="endArrow=classic;html=1;rounded=0;exitX=0.25;exitY=0;exitDx=0;exitDy=0;" edge="1" parent="1" source="IlggWSS1KbTiTnfQzWxn-2">
          <mxGeometry width="50" height="50" relative="1" as="geometry">
            <mxPoint x="240" y="180" as="sourcePoint" />
            <mxPoint x="280" y="160" as="targetPoint" />
          </mxGeometry>
        </mxCell>
        <mxCell id="IlggWSS1KbTiTnfQzWxn-4" value="NETWORK" style="rounded=1;whiteSpace=wrap;html=1;strokeWidth=2;fillWeight=4;hachureGap=8;hachureAngle=45;fillColor=#ffe6cc;sketch=1;strokeColor=#d79b00;fontStyle=1" vertex="1" parent="1">
          <mxGeometry x="240" y="120" width="160" height="40" as="geometry" />
        </mxCell>
        <mxCell id="IlggWSS1KbTiTnfQzWxn-5" value="" style="endArrow=classic;html=1;rounded=0;exitX=0.75;exitY=1;exitDx=0;exitDy=0;entryX=0.75;entryY=0;entryDx=0;entryDy=0;" edge="1" parent="1" source="IlggWSS1KbTiTnfQzWxn-4" target="IlggWSS1KbTiTnfQzWxn-2">
          <mxGeometry width="50" height="50" relative="1" as="geometry">
            <mxPoint x="290" y="210" as="sourcePoint" />
            <mxPoint x="290" y="170" as="targetPoint" />
          </mxGeometry>
        </mxCell>
        <mxCell id="IlggWSS1KbTiTnfQzWxn-7" value="" style="edgeStyle=elbowEdgeStyle;elbow=horizontal;endArrow=classic;html=1;curved=0;rounded=0;endSize=8;startSize=8;exitX=0.75;exitY=1;exitDx=0;exitDy=0;" edge="1" parent="1" source="IlggWSS1KbTiTnfQzWxn-19">
          <mxGeometry width="50" height="50" relative="1" as="geometry">
            <mxPoint x="360" y="340" as="sourcePoint" />
            <mxPoint x="520" y="360" as="targetPoint" />
            <Array as="points">
              <mxPoint x="360" y="380" />
            </Array>
          </mxGeometry>
        </mxCell>
        <UserObject label="ROUTER ON NETWORK" placeholders="1" name="Variable" id="IlggWSS1KbTiTnfQzWxn-8">
          <mxCell style="text;html=1;strokeColor=none;fillColor=none;align=center;verticalAlign=middle;whiteSpace=wrap;overflow=hidden;fontStyle=1" vertex="1" parent="1">
            <mxGeometry x="240" y="80" width="160" height="20" as="geometry" />
          </mxCell>
        </UserObject>
        <mxCell id="IlggWSS1KbTiTnfQzWxn-13" value="Performs provides flow control&amp;nbsp; and error detection and correcting." style="strokeWidth=1;shadow=0;dashed=0;align=center;html=1;shape=mxgraph.mockup.text.textBox;fontColor=#000000;align=left;fontSize=11;spacingLeft=4;spacingTop=-3;whiteSpace=wrap;strokeColor=#666666;mainText=" vertex="1" parent="1">
          <mxGeometry x="440" y="190" width="170" height="60" as="geometry" />
        </mxCell>
        <mxCell id="IlggWSS1KbTiTnfQzWxn-14" value="" style="endArrow=none;dashed=1;html=1;rounded=0;entryX=-0.008;entryY=0.498;entryDx=0;entryDy=0;entryPerimeter=0;exitX=1;exitY=0.5;exitDx=0;exitDy=0;" edge="1" parent="1" source="IlggWSS1KbTiTnfQzWxn-2" target="IlggWSS1KbTiTnfQzWxn-13">
          <mxGeometry width="50" height="50" relative="1" as="geometry">
            <mxPoint x="130" y="110" as="sourcePoint" />
            <mxPoint x="180" y="60" as="targetPoint" />
          </mxGeometry>
        </mxCell>
        <mxCell id="IlggWSS1KbTiTnfQzWxn-15" value="Data packet moves from sender on network" style="text;html=1;strokeColor=none;fillColor=none;align=center;verticalAlign=middle;whiteSpace=wrap;rounded=0;" vertex="1" parent="1">
          <mxGeometry x="120" y="370" width="160" height="30" as="geometry" />
        </mxCell>
        <mxCell id="IlggWSS1KbTiTnfQzWxn-16" value="Data packet moves towards receiver on network" style="text;html=1;strokeColor=none;fillColor=none;align=center;verticalAlign=middle;whiteSpace=wrap;rounded=0;" vertex="1" parent="1">
          <mxGeometry x="360" y="370" width="160" height="30" as="geometry" />
        </mxCell>
        <mxCell id="IlggWSS1KbTiTnfQzWxn-17" value="Checks forwarding table for addressing information, and transmits to next address." style="strokeWidth=1;shadow=0;dashed=0;align=center;html=1;shape=mxgraph.mockup.text.textBox;fontColor=#000000;align=left;fontSize=11;spacingLeft=4;spacingTop=-3;whiteSpace=wrap;strokeColor=#666666;mainText=" vertex="1" parent="1">
          <mxGeometry x="440" y="110" width="170" height="60" as="geometry" />
        </mxCell>
        <mxCell id="IlggWSS1KbTiTnfQzWxn-18" value="" style="endArrow=none;dashed=1;html=1;rounded=0;entryX=-0.002;entryY=0.496;entryDx=0;entryDy=0;entryPerimeter=0;exitX=1;exitY=0.5;exitDx=0;exitDy=0;" edge="1" parent="1" source="IlggWSS1KbTiTnfQzWxn-4" target="IlggWSS1KbTiTnfQzWxn-17">
          <mxGeometry width="50" height="50" relative="1" as="geometry">
            <mxPoint x="410" y="230" as="sourcePoint" />
            <mxPoint x="449" y="230" as="targetPoint" />
          </mxGeometry>
        </mxCell>
        <mxCell id="IlggWSS1KbTiTnfQzWxn-19" value="PHYSICAL" style="rounded=1;whiteSpace=wrap;html=1;strokeWidth=2;fillWeight=4;hachureGap=8;hachureAngle=45;fillColor=#ffe6cc;sketch=1;strokeColor=#d79b00;fontStyle=1" vertex="1" parent="1">
          <mxGeometry x="240" y="280" width="160" height="40" as="geometry" />
        </mxCell>
        <mxCell id="IlggWSS1KbTiTnfQzWxn-20" value="" style="endArrow=classic;html=1;rounded=0;exitX=0.25;exitY=0;exitDx=0;exitDy=0;" edge="1" parent="1">
          <mxGeometry width="50" height="50" relative="1" as="geometry">
            <mxPoint x="279.17" y="280" as="sourcePoint" />
            <mxPoint x="279.17" y="240" as="targetPoint" />
          </mxGeometry>
        </mxCell>
        <mxCell id="IlggWSS1KbTiTnfQzWxn-21" value="" style="endArrow=classic;html=1;rounded=0;exitX=0.75;exitY=1;exitDx=0;exitDy=0;entryX=0.75;entryY=0;entryDx=0;entryDy=0;" edge="1" parent="1">
          <mxGeometry width="50" height="50" relative="1" as="geometry">
            <mxPoint x="359.17" y="240" as="sourcePoint" />
            <mxPoint x="359.17" y="280" as="targetPoint" />
          </mxGeometry>
        </mxCell>
        <mxCell id="IlggWSS1KbTiTnfQzWxn-22" value="The physical components of a network e.g., cabling, router, etc." style="strokeWidth=1;shadow=0;dashed=0;align=center;html=1;shape=mxgraph.mockup.text.textBox;fontColor=#000000;align=left;fontSize=11;spacingLeft=4;spacingTop=-3;whiteSpace=wrap;strokeColor=#666666;mainText=" vertex="1" parent="1">
          <mxGeometry x="440" y="270" width="170" height="60" as="geometry" />
        </mxCell>
      </root>
    </mxGraphModel>
  </diagram>
</mxfile>
